<svg width="39" height="47" viewBox="0 0 39 47" fill="none" xmlns="http://www.w3.org/2000/svg">
<path d="M33.4588 31.2889C33.9185 26.7191 33.4801 22.2651 32.6957 17.7671C32.2388 15.1364 32.0578 12.4671 32.1554 9.80065C32.2408 7.94842 31.7652 6.11271 30.7881 4.52288C29.672 2.60243 27.7691 1.05218 25.4303 1.3229C25.324 1.34488 25.2142 1.34488 25.108 1.3229C25.0221 1.29085 24.9421 1.24554 24.871 1.1887C23.6625 0.293257 21.6695 0.022543 20.1861 0.00171883C18.3584 -0.0292955 16.5497 0.367394 14.9112 1.15862C12.1434 2.5145 10.0083 5.1291 9.4609 8.10001C9.26897 9.33558 9.24506 10.5905 9.38981 11.8322C9.48459 12.8618 9.62678 13.9146 9.43957 14.9234C9.17653 16.3117 8.31871 17.5102 7.78079 18.8221C7.10111 20.4571 6.77283 22.211 6.81632 23.975C6.87082 25.2383 7.25708 28.4452 8.72866 28.9034C10.7121 29.5235 12.8069 29.7201 14.8899 29.9122L20.762 30.4582C21.7667 30.5508 22.7904 30.6433 23.7691 30.4073C24.5013 30.2315 25.1767 29.8798 25.9018 29.6808C26.8018 29.4353 27.7529 29.4305 28.6554 29.6669" fill="#AA4F7A"/>
<g style="mix-blend-mode:multiply" opacity="0.32">
<g opacity="0.32" style="mix-blend-mode:multiply">
<path d="M16.117 5.7518L12.3254 6.87399C12.2564 6.89005 12.1912 6.91913 12.1335 6.9596C12.0691 7.01882 12.0224 7.09399 11.9984 7.1771C11.3476 8.79059 10.9066 10.4774 10.6856 12.198C10.406 14.4447 11.4534 16.666 10.7828 18.908L10.0103 21.5805C9.62163 22.8832 9.23063 24.2529 9.53632 25.5764C9.77329 26.6176 10.406 27.52 10.8705 28.4825C11.5685 29.9313 11.883 31.528 11.7852 33.1263C11.7852 33.0754 14.8658 32.4669 15.1478 32.3859C16.2981 32.0647 17.4294 31.6816 18.5364 31.2383C19.4985 30.8542 20.4322 30.3845 21.3966 30.0374C21.9725 29.8338 22.5009 29.6857 22.899 29.2021C24.0009 27.8624 24.2568 25.5001 24.2995 23.8549C24.3478 21.9154 23.9738 19.9879 23.2023 18.2C22.6635 16.9492 21.9218 15.7913 21.0056 14.771" fill="#AA4F7A"/>
</g>
</g>
<path d="M4.42049 30.5971C2.28777 34.0007 0.98207 37.8671 0.266423 41.8005C-0.0416366 43.5012 -0.233582 45.3268 0.567374 46.8654C1.87307 49.4106 5.4679 48.7003 7.77835 48.1936C11.2997 47.4254 15.5983 45.8589 17.8021 42.9898" fill="#EA7C99"/>
<path d="M37.5017 48.4897C38.3761 46.0625 38.1842 43.0129 37.9757 40.6228C37.7221 37.5709 37.0657 34.7828 35.5799 32.0247C34.4662 29.9608 33.2955 27.6887 31.1036 26.5873C30.0419 26.0528 28.895 25.7034 27.786 25.2476C26.4353 24.6877 25.1438 23.4868 25.5182 21.9296C25.7552 20.9 26.5135 20.0578 27.2931 19.322C27.7391 18.8811 28.151 18.4086 28.5253 17.9082C28.5469 17.8763 28.5762 17.8501 28.6106 17.8319C28.6621 17.8196 28.7164 17.8244 28.7647 17.8458C29.3495 18.028 29.976 18.0403 30.5679 17.8813C31.1598 17.7224 31.6917 17.3989 32.0988 16.9503C32.8713 16.1174 33.0799 14.3473 32.3998 13.3848C31.8121 12.5518 30.3453 12.2649 29.4329 12.6397C29.7884 10.7702 29.8547 8.11393 29.0561 6.34387C28.3121 4.62935 26.3902 3.33825 24.748 2.54693C23.1059 1.75561 21.3096 1.60522 19.5205 1.79957C17.6413 2.0055 15.6887 2.6927 14.5987 4.19898C14.1836 4.82276 13.8642 5.50251 13.6508 6.21661C13.0343 8.01693 12.6017 9.87237 12.3593 11.7558C12.1555 13.3524 12.1034 15.2451 12.4517 16.8254C12.6452 17.8161 13.1408 18.7267 13.8735 19.4377C14.7859 20.2752 15.556 20.5436 16.7977 20.7149C18.094 20.8953 19.9494 21.1406 20.5892 22.4155C21.7314 24.6576 19.8783 25.7219 17.9684 26.3652C13.838 27.7534 13.9802 31.8604 13.4257 35.3705C13.1887 36.9253 12.4778 38.1817 11.9683 39.6417C11.697 40.5312 11.5379 41.4496 11.4944 42.3766C11.4493 42.8949 11.2124 43.6238 11.2929 44.1282C11.3783 44.6696 11.8238 44.9473 12.2574 45.3013C13.5915 46.3865 15.101 47.2588 16.5868 48.1125C17.876 48.826 19.2361 49.4098 20.6461 49.8548C22.6153 50.5073 24.4376 51.3264 26.4803 51.7637C28.0126 52.116 29.5713 52.3481 31.1415 52.4579C33.5372 52.5944 35.7766 51.7036 36.9662 49.6142C37.1774 49.2551 37.3566 48.8788 37.5017 48.4897Z" fill="#FF8DA8"/>
<g style="mix-blend-mode:multiply" opacity="0.2">
<g opacity="0.2" style="mix-blend-mode:multiply">
<path d="M23.5536 1.91977C23.8593 3.2664 23.6129 4.66393 23.4541 6.0337C23.2953 7.40347 23.2408 8.85885 23.8807 10.0898C24.2984 10.8433 24.9439 11.4527 25.7293 11.8349C26.5147 12.2171 27.4017 12.3535 28.2693 12.2254C27.8283 9.57554 26.9241 7.01938 25.5963 4.66856" fill="#FF8DA8"/>
</g>
</g>
<path d="M15.6806 6.2491C15.4839 5.4277 13.9436 6.07325 13.5479 6.36479C13.2138 6.60774 12.7564 7.12141 13.2754 7.44302C13.7943 7.76464 14.9034 7.14917 15.3181 6.86226C15.5242 6.71186 15.7399 6.48048 15.6806 6.2491Z" fill="#843860"/>
<path d="M21.8254 5.92972C22.0221 5.10832 23.5624 5.75619 23.9581 6.04773C24.2899 6.27911 24.7472 6.80202 24.2283 7.12364C23.7093 7.44526 22.6003 6.82979 22.1856 6.54288C21.9818 6.39942 21.7662 6.17498 21.8254 5.92972Z" fill="#843860"/>
<path d="M31.1597 52.4651C33.5555 52.6016 35.7949 51.7108 36.9844 49.6214C37.1895 49.2594 37.3624 48.8809 37.501 48.49C38.3755 46.0628 38.1835 43.0132 37.975 40.6231C37.7214 37.5712 37.065 34.783 35.5792 32.025C34.584 30.174 33.5389 28.1725 31.764 26.9786C31.7048 27.0133 31.6432 27.048 31.5863 27.085C28.3066 29.1281 25.399 32.1314 21.5483 32.6706C19.2734 32.9875 16.9511 32.3721 14.8823 31.391C14.6311 31.2707 14.3681 31.1458 14.098 31.0278C13.7709 32.416 13.6596 33.9547 13.4345 35.38C13.1975 36.9349 12.4866 38.1913 11.9771 39.6513C11.7058 40.5407 11.5467 41.4591 11.5032 42.3862C11.4581 42.9045 11.2212 43.6333 11.3017 44.1377C11.387 44.6792 11.8325 44.9568 12.2662 45.3108C13.6003 46.396 15.1098 47.2683 16.5956 48.1221C17.8848 48.8356 19.2449 49.4193 20.6549 49.8644C22.6241 50.5169 24.4464 51.336 26.4891 51.7733C28.0246 52.1252 29.5864 52.3566 31.1597 52.4651Z" fill="#F26757"/>
<g style="mix-blend-mode:multiply" opacity="0.25">
<g opacity="0.25" style="mix-blend-mode:multiply">
<path d="M24.3406 18.1925C25.6009 18.1925 26.6226 17.1949 26.6226 15.9643C26.6226 14.7337 25.6009 13.7361 24.3406 13.7361C23.0803 13.7361 22.0586 14.7337 22.0586 15.9643C22.0586 17.1949 23.0803 18.1925 24.3406 18.1925Z" fill="#FF8DA8"/>
</g>
<g opacity="0.25" style="mix-blend-mode:multiply">
<path d="M13.8923 15.2151C13.892 14.7307 13.7298 14.2597 13.4305 13.8734C13.1311 13.4871 12.7109 13.2068 12.2335 13.0749C12.1358 14.3289 12.2083 15.59 12.4492 16.8255C12.48 16.9644 12.5179 17.1032 12.5582 17.2397C12.9561 17.0629 13.2936 16.778 13.5301 16.419C13.7667 16.0599 13.8925 15.642 13.8923 15.2151Z" fill="#FF8DA8"/>
</g>
</g>
<path d="M38.2834 40.1277C38.1042 38.1974 37.7068 36.2924 37.0985 34.4474C36.6246 32.9966 36.1933 31.2543 35.0369 30.19C33.2454 28.5402 30.7596 28.9035 29.0274 30.4931C26.7667 32.5755 27.461 35.2665 28.5226 37.7283C29.2786 39.4822 30.1411 41.2407 30.2904 43.1357C30.3161 43.2967 30.2964 43.4614 30.2336 43.6123C30.0819 43.9015 29.6838 43.9548 29.3497 43.9548C27.6577 43.9548 25.9965 43.536 24.3567 43.1218L19.4467 41.8816C18.0131 41.5206 16.5628 41.1551 15.1694 40.6599C13.9657 42.2687 12.9685 44.0155 12.2002 45.8613C14.4206 47.5851 16.7619 49.2534 19.4301 50.2298C23.4065 51.6875 28.4539 53.7838 32.8473 52.893C33.9651 52.6892 35.0081 52.2011 35.871 51.478C36.7339 50.7549 37.3862 49.8223 37.7621 48.7744C38.7881 46.0464 38.5251 42.9645 38.2834 40.1277Z" fill="#FF8DA8"/>
<path d="M26.7191 24.6182C26.3608 24.3556 26.0568 24.029 25.8234 23.6557C24.2466 24.17 22.5426 24.1781 20.9608 23.6788C20.9651 24.0964 20.8267 24.5036 20.5674 24.8357C22.5805 25.4711 24.7584 25.3941 26.7191 24.6182Z" fill="#F7BF54"/>
<path d="M23.1436 1.08449C24.0369 1.87349 24.2786 3.07667 24.3948 4.20117C24.5725 5.94578 24.5654 7.73897 25.236 9.38177C25.9066 11.0246 27.4682 12.5262 29.3995 12.5841C29.5095 12.5962 29.6205 12.5744 29.7171 12.5216C29.787 12.46 29.8365 12.3794 29.8593 12.2902C31.0891 9.02081 29.8593 5.11744 26.9066 2.92858C25.8663 2.16503 24.6483 1.60509 23.4635 1.05209" fill="#AA4F7A"/>
<g style="mix-blend-mode:multiply" opacity="0.2">
<g opacity="0.2" style="mix-blend-mode:multiply">
<path d="M13.3232 7.32452C14.8185 7.75026 16.3754 8.04643 17.9323 7.94693C19.4892 7.84744 21.0508 7.32684 22.1977 6.28794C23.3447 5.24905 23.9869 3.65021 23.6646 2.16013C21.6535 3.61979 19.2432 4.46227 16.7403 4.58036" fill="#FF8DA8"/>
</g>
</g>
<path d="M23.7337 1.44546C24.1744 2.60468 23.6389 3.93511 22.7526 4.83749C21.2929 6.32295 19.0867 6.84124 16.9871 7.02866C14.8876 7.21608 12.7383 7.14898 10.7217 7.75056C11.2549 5.12209 13.4397 3.00959 15.9753 1.98226C18.5109 0.954938 21.3497 0.890152 24.0749 1.18863" fill="#AA4F7A"/>
<path d="M16.2188 15.5363C16.22 15.5201 16.22 15.5039 16.2188 15.4877C16.2111 15.4239 16.1907 15.3621 16.1585 15.306C16.1263 15.2499 16.0832 15.2005 16.0314 15.1607C15.9797 15.121 15.9204 15.0916 15.857 15.0742C15.7936 15.0569 15.7273 15.0519 15.6619 15.0597L10.3419 15.6705C10.2293 15.684 10.1246 15.7344 10.045 15.8133C9.96542 15.8923 9.91555 15.9953 9.90354 16.1055L8.95567 24.9697C8.94236 25.0987 8.98166 25.2276 9.06505 25.3285C9.14844 25.4295 9.26921 25.4942 9.40117 25.5088H9.45567C9.57953 25.5083 9.69885 25.4632 9.79069 25.382C9.88254 25.3009 9.94046 25.1895 9.95331 25.0692L10.8656 16.596L15.5837 16.0523C15.6243 15.914 15.7066 15.7909 15.8199 15.6989C15.9332 15.6069 16.0721 15.5502 16.2188 15.5363Z" fill="#B9B5EC"/>
<path d="M19.2126 13.1603C19.1889 13.1603 19.1463 13.2759 19.0254 13.4587C18.8493 13.7173 18.6032 13.9231 18.3145 14.0534C18.1243 14.1427 17.9165 14.1908 17.7055 14.1945C17.4685 14.1945 17.3406 14.1159 17.3856 13.8798C17.4306 13.6438 17.5799 13.3893 17.6723 13.1117C17.7818 12.8251 17.876 12.5332 17.9543 12.237C18.2364 11.2004 18.3452 10.1261 18.2766 9.05557C18.2221 8.23418 18.0775 7.74365 18.0396 7.75059C18.0017 7.75753 18.0657 8.25731 18.0681 9.06251C18.0742 10.1093 17.9403 11.1524 17.67 12.1653C17.587 12.4615 17.5017 12.7484 17.4022 13.0191C17.3548 13.1556 17.3003 13.2875 17.2505 13.4171C17.1901 13.5521 17.1456 13.6934 17.1178 13.8382C17.1014 13.9192 17.1014 14.0025 17.1178 14.0835C17.1368 14.1731 17.1851 14.2542 17.2553 14.3148C17.3832 14.4093 17.5441 14.4508 17.7031 14.4305C17.9459 14.4146 18.1822 14.3466 18.3951 14.2315C18.7035 14.0715 18.9523 13.8205 19.106 13.5143C19.2245 13.2968 19.2269 13.1649 19.2126 13.1603Z" fill="#C45673"/>
<path d="M16.4701 10.2566C16.4275 10.2566 16.3943 10.6337 16.2332 11.2168C16.1442 11.5575 16.0261 11.8903 15.8801 12.2117C15.7941 12.3947 15.6876 12.5677 15.5626 12.7277C15.4479 12.8886 15.2809 13.0069 15.0886 13.0632C15.0006 13.0909 14.9065 13.0948 14.8163 13.0744C14.7262 13.054 14.6434 13.0102 14.5768 12.9475C14.4463 12.8008 14.3472 12.6301 14.2853 12.4454C14.1493 12.1219 14.0484 11.7853 13.9843 11.4413C13.8848 10.8489 13.9109 10.4671 13.8635 10.4625C13.8161 10.4579 13.7308 10.8397 13.7829 11.4667C13.8135 11.8347 13.8932 12.1971 14.0199 12.5449C14.0871 12.7681 14.2036 12.9743 14.3611 13.1488C14.4595 13.2493 14.5853 13.3199 14.7237 13.3524C14.8614 13.386 15.0054 13.386 15.1431 13.3524C15.4013 13.281 15.6264 13.1249 15.7806 12.9105C15.9169 12.7263 16.0298 12.5266 16.1171 12.3159C16.2626 11.9764 16.3707 11.6227 16.4393 11.2608C16.5483 10.6453 16.5057 10.2566 16.4701 10.2566Z" fill="#C45673"/>
<path d="M24.0741 10.053C24.0291 10.053 24.0457 10.488 23.9058 11.1567C23.8249 11.5442 23.6968 11.921 23.5243 12.2789C23.4275 12.4792 23.2905 12.6586 23.1215 12.8064C22.9458 12.9536 22.7226 13.0355 22.4911 13.0378C22.3782 13.0285 22.2686 12.9962 22.1694 12.9427C22.0701 12.8893 21.9836 12.816 21.9153 12.7277C21.7684 12.556 21.6507 12.3622 21.567 12.1539C21.413 11.7819 21.3041 11.3937 21.2423 10.997C21.1357 10.3237 21.1807 9.89334 21.1357 9.88871C21.0907 9.88408 20.9816 10.3121 21.0385 11.0225C21.0782 11.4423 21.1763 11.8548 21.33 12.2488C21.4158 12.4902 21.5432 12.7156 21.7068 12.9152C21.8007 13.0323 21.9189 13.1287 22.0537 13.1981C22.1884 13.2675 22.3367 13.3083 22.4888 13.3178C22.7915 13.3199 23.0843 13.2128 23.3111 13.017C23.5133 12.8445 23.6749 12.6314 23.785 12.3922C23.9551 12.0085 24.07 11.6036 24.1262 11.1891C24.1997 10.4857 24.1073 10.0507 24.0741 10.053Z" fill="#C45673"/>
<path d="M29.3496 17.14C29.3899 17.1169 29.2382 16.8901 29.2169 16.4875C29.2075 16.2515 29.2445 16.0158 29.3259 15.7934C29.427 15.522 29.5718 15.2682 29.7548 15.0414C30.0916 14.616 30.5062 14.2551 30.9776 13.977C31.3425 13.7619 31.5937 13.6647 31.5818 13.623C31.57 13.5814 31.2927 13.623 30.8828 13.8012C30.3474 14.0438 29.8812 14.4108 29.5249 14.8702C29.3213 15.1236 29.1671 15.4115 29.07 15.7193C28.9915 15.975 28.9729 16.2447 29.0154 16.5083C29.096 16.9618 29.3282 17.1654 29.3496 17.14Z" fill="#C45673"/>
<path d="M29.6749 16.7999C29.6867 16.8323 29.8526 16.8138 30.0493 16.6472C30.1727 16.5354 30.2719 16.4006 30.341 16.2508C30.4102 16.101 30.448 15.9392 30.4521 15.7749C30.4578 15.4539 30.3663 15.1384 30.1891 14.8679C30.054 14.6666 29.9355 14.5717 29.9047 14.5925C29.8739 14.6134 29.9284 14.7499 30.0042 14.9558C30.109 15.2135 30.1621 15.4884 30.1606 15.7656C30.1508 16.0343 30.0601 16.2942 29.9 16.513C29.7744 16.6819 29.6559 16.7606 29.6749 16.7999Z" fill="#C45673"/>
<path d="M16.2118 16.3393C16.11 16.3106 16.0109 16.2734 15.9156 16.2282C15.8184 16.187 15.736 16.1186 15.6786 16.0316C15.6705 16.0178 15.6663 16.0023 15.6663 15.9864C15.6663 15.9706 15.6705 15.955 15.6786 15.9413C15.704 15.8999 15.7399 15.8656 15.7829 15.8418C15.8327 15.8117 15.899 15.777 15.9677 15.7446L16.072 15.6984L16.1526 15.666C16.1827 15.6459 16.2099 15.6217 16.2332 15.5942C16.2497 15.5734 16.2734 15.5387 16.2971 15.5017C16.2964 15.4069 16.2572 15.3162 16.1881 15.2495L16.117 15.2148L16.0862 15.1916L16.0317 15.1546C15.9971 15.1303 15.9638 15.104 15.9322 15.076C15.8691 15.021 15.8112 14.9606 15.7592 14.8955C15.7104 14.8338 15.666 14.7689 15.6265 14.7011C15.6028 14.641 15.6099 14.6502 15.6265 14.6294C15.6733 14.5979 15.7284 14.5802 15.7853 14.5785C15.8563 14.575 15.9275 14.575 15.9986 14.5785L16.4132 14.5924C16.9227 14.5924 17.2403 14.5924 17.2426 14.5507C17.245 14.5091 16.9346 14.4535 16.4298 14.3934L16.0151 14.3471H15.9014C15.8564 14.3447 15.8113 14.3447 15.7663 14.3471C15.6568 14.3467 15.5499 14.3799 15.4606 14.442C15.3995 14.4885 15.3595 14.5567 15.3493 14.6317C15.3408 14.6993 15.3532 14.7677 15.3848 14.8284C15.4276 14.9169 15.48 15.0007 15.5412 15.0783C15.6021 15.161 15.6703 15.2384 15.745 15.3096C15.7829 15.342 15.8232 15.3767 15.8658 15.4068L15.9298 15.4508L15.9583 15.4693L15.8493 15.5225C15.7782 15.5595 15.7094 15.5966 15.6336 15.6451C15.5515 15.6997 15.4861 15.7748 15.444 15.8626C15.4238 15.912 15.4156 15.9653 15.4201 16.0184C15.4247 16.0714 15.4418 16.1226 15.4701 16.1681C15.5575 16.2885 15.6808 16.3798 15.8232 16.4295C15.8823 16.4537 15.9433 16.473 16.0057 16.4874L16.1621 16.5221C16.5602 16.6031 16.8042 16.6378 16.8137 16.6031C16.8232 16.5684 16.591 16.4689 16.2118 16.3393Z" fill="#C45673"/>
<path d="M16.0462 25.6224L3.60059 26.3536L5.49634 42.1198C5.51662 42.2859 5.60195 42.438 5.73447 42.5441C5.86699 42.6502 6.0364 42.7021 6.20725 42.689L14.1481 42.2054C14.3076 42.1959 14.4581 42.1305 14.5722 42.0212C14.6863 41.912 14.7561 41.7662 14.7689 41.6107L16.0462 25.6224Z" fill="#F9A353"/>
<path d="M5.14289 39.2369L15.1643 36.4927L15.861 27.9062L4.16895 31.1062L5.14289 39.2369Z" fill="#F7BF54"/>
<g style="mix-blend-mode:multiply" opacity="0.14">
<g opacity="0.14" style="mix-blend-mode:multiply">
<path d="M3.60059 26.3536L5.49634 42.1198C5.51662 42.2859 5.60196 42.438 5.73447 42.5441C5.86699 42.6502 6.03641 42.7021 6.20725 42.689L12.5272 42.3049C10.8386 39.9131 9.51881 37.2921 8.61012 34.5259C7.72581 31.8137 7.33914 28.9704 7.46793 26.1268L3.60059 26.3536Z" fill="#F9A353"/>
</g>
</g>
<path d="M16.0573 24.1976L2.91848 24.9868C2.62588 25.0043 2.40326 25.2502 2.42126 25.5359L2.47131 26.3303C2.48931 26.616 2.74111 26.8334 3.03371 26.8158L16.1725 26.0267C16.4651 26.0091 16.6877 25.7633 16.6697 25.4776L16.6197 24.6831C16.6017 24.3974 16.3499 24.18 16.0573 24.1976Z" fill="#F7BF54"/>
<g style="mix-blend-mode:multiply" opacity="0.2">
<g opacity="0.2" style="mix-blend-mode:multiply">
<path d="M38.2836 40.1274C38.1044 38.1971 37.707 36.292 37.0987 34.447C36.6248 32.9963 36.1935 31.254 35.0371 30.1897C33.7266 28.9842 32.0489 28.8569 30.5631 29.4955L27.582 34.6553C27.7565 35.7162 28.0753 36.7495 28.5299 37.728C29.0678 38.9752 29.6579 40.2269 30.0086 41.5273C31.6449 41.7978 33.2996 41.9486 34.9589 41.9785C36.1203 42.0135 37.2824 41.936 38.4281 41.7471C38.3736 41.1871 38.3286 40.6573 38.2836 40.1274Z" fill="#FF8DA8"/>
</g>
</g>
<path d="M28.2504 40.0695C31.4376 40.7636 35.3594 40.5993 38.44 39.1254C38.35 38.2578 37.305 35.229 37.2078 34.912C36.5135 32.619 36.023 30.2104 34.1746 28.6648C32.5158 27.258 30.2551 26.9086 28.5063 28.3547C28.1156 28.6938 27.7898 29.0981 27.5442 29.5486C26.248 31.793 26.7717 35.0184 27.4707 37.3924C27.7267 38.284 27.9865 39.1763 28.2504 40.0695Z" fill="#DB5449"/>
<path d="M31.3994 24.5463C30.8544 23.3639 31.3378 22.2186 30.6482 21.0756C30.2833 20.4763 29.6198 19.9187 29.3876 19.243C29.179 18.6484 29.1861 17.8548 29.1293 17.2138C28.9708 15.4681 29.1052 13.7089 29.5274 12.0055C29.5571 11.9152 29.5676 11.8199 29.5582 11.7255C29.5197 11.597 29.444 11.4821 29.3402 11.3946C28.6249 10.6744 27.9607 9.90755 27.352 9.09933L27.9492 12.2137C27.8852 12.8523 27.7999 13.484 27.698 14.1318C27.5263 15.3713 27.1744 16.5805 26.6529 17.7229C25.442 20.2102 24.6766 23.4495 25.916 26.0872C26.4255 27.1678 27.4492 28.0702 28.6601 28.1928C30.198 28.3455 31.7549 27.2673 33.2217 27.73C32.5227 26.7213 31.9131 25.6562 31.3994 24.5463Z" fill="#AA4F7A"/>
<path d="M15.7029 48.1633C13.5701 47.0619 10.4042 44.9957 10.7692 42.2353C10.8622 41.378 11.1084 40.5432 11.4967 39.7688C11.8261 39.1788 12.2076 38.6489 11.8734 37.934C11.6531 37.4712 11.108 37.1427 10.7218 36.8187C10.2362 36.4338 9.81352 35.979 9.46821 35.4698C9.44303 35.4404 9.42574 35.4053 9.41788 35.3677C9.41002 35.3302 9.41185 35.2913 9.42318 35.2546C9.6412 34.8775 11.1981 35.6965 11.4445 35.8493C12.134 36.2696 12.7011 36.856 13.0915 37.5522C13.0488 37.4735 13.1175 37.1704 13.1057 37.0617C13.0753 36.9018 13.0243 36.7463 12.954 36.5989C12.853 36.2764 12.7295 35.961 12.5844 35.6549C12.2431 35.0117 11.7573 34.4563 11.3545 33.8524C11.2509 33.7151 11.1797 33.5571 11.146 33.3897C11.13 33.3071 11.1389 33.2218 11.1717 33.1442C11.2046 33.0665 11.2598 32.9999 11.3308 32.9524C11.5678 32.8205 11.8545 33.0102 12.0559 33.1838C12.4943 33.5678 13.0417 33.9982 13.3071 34.5258C13.6199 35.1459 13.7953 35.884 14.018 36.5388C14.255 36.5874 13.9683 35.0024 13.9185 34.8589C13.755 34.38 13.71 33.9473 13.4185 33.5285C13.0393 32.9871 12.5464 32.4457 12.5441 31.7885C12.5362 31.7183 12.5464 31.6473 12.5737 31.5818C12.601 31.5164 12.6446 31.4586 12.7005 31.4137C12.8948 31.2957 13.1341 31.4669 13.2858 31.6335C14.364 32.8297 14.7384 34.424 14.9256 35.9765L15.5465 33.6072C15.5962 33.4221 15.7147 33.1907 15.9067 33.23C15.968 33.2482 16.023 33.2826 16.0654 33.3295C16.601 33.8733 16.4114 34.6692 16.274 35.324C16.1152 36.0829 15.9943 36.8511 15.8924 37.6193C15.8024 38.2926 15.6555 38.9613 15.6294 39.6416C15.5986 40.2524 15.9612 40.6342 16.5015 40.935C16.7956 41.0717 17.1017 41.1825 17.4162 41.2659C17.7455 41.3792 18.0441 41.569 18.383 41.6708" fill="#FF8DA8"/>
<path d="M33.4347 10.8766C31.4347 10.2449 29.0603 10.1986 26.9821 10.2079H26.9631C26.6693 8.01672 25.0674 6.33459 23.1479 6.33459C21.3398 6.33459 19.8303 7.82005 19.4038 9.81686C19.1025 9.54314 18.7063 9.39097 18.2948 9.39097C17.8833 9.39097 17.487 9.54314 17.1858 9.81686C16.8256 7.73444 15.2639 6.14255 13.3943 6.14255C11.2615 6.14255 9.5293 8.20414 9.5293 10.7378C9.5293 13.2714 11.2615 15.333 13.3943 15.333C15.527 15.333 17.2592 13.2714 17.2592 10.7378C17.2592 10.666 17.2592 10.5966 17.2592 10.5249C17.3444 10.3274 17.4879 10.1592 17.6715 10.0417C17.855 9.92419 18.0703 9.86277 18.2897 9.86525C18.5092 9.86773 18.7229 9.93401 18.9036 10.0556C19.0843 10.1772 19.2238 10.3487 19.3043 10.548C19.3043 10.6753 19.2877 10.8025 19.2877 10.9321C19.2877 13.4773 21.0223 15.5273 23.1526 15.5273C25.283 15.5273 27.0176 13.4634 27.0176 10.9298C27.0176 10.8488 27.0176 10.7725 27.0176 10.6984C28.5467 10.6901 30.0741 10.7968 31.5864 11.0177C32.1669 11.1033 32.7428 11.219 33.3162 11.3486C34.5177 11.6216 34.7381 12.7623 34.7949 13.7688C34.8139 14.0812 35.3163 14.0835 35.2949 13.7688C35.193 12.4268 34.8376 11.3139 33.4347 10.8766ZM13.399 14.7429C11.598 14.7429 10.1359 12.9451 10.1359 10.7354C10.1359 8.52576 11.598 6.72794 13.399 6.72794C15.2 6.72794 16.6621 8.52576 16.6621 10.7354C16.6621 12.9451 15.1976 14.7429 13.399 14.7429ZM23.1479 14.9373C21.3493 14.9373 19.8848 13.1395 19.8848 10.9298C19.8848 8.72012 21.3493 6.9223 23.1479 6.9223C24.9465 6.9223 26.4133 8.72012 26.4133 10.9298C26.4133 13.1395 24.9489 14.9373 23.1479 14.9373Z" fill="#F7BF54"/>
</svg>
