<svg width="18" height="18" viewBox="0 0 18 18" fill="none" xmlns="http://www.w3.org/2000/svg">
<path d="M7.32021 10.7751C6.88896 10.3446 6.62646 9.7596 6.62646 9.10335C6.62646 7.7886 7.68547 6.72885 8.99947 6.72885C9.64972 6.72885 10.2482 6.9921 10.672 7.4226" stroke="#7B6F72" stroke-width="1.2" stroke-linecap="round" stroke-linejoin="round"/>
<path d="M11.3285 9.52417C11.1545 10.4917 10.3925 11.2552 9.42578 11.4307" stroke="#7B6F72" stroke-width="1.2" stroke-linecap="round" stroke-linejoin="round"/>
<path d="M4.99076 13.1042C3.80051 12.1697 2.79251 10.8047 2.06201 9.10298C2.80001 7.39373 3.81476 6.02123 5.01251 5.07923C6.20276 4.13723 7.57601 3.62573 8.99951 3.62573C10.4313 3.62573 11.8038 4.14473 13.0015 5.09348" stroke="#7B6F72" stroke-width="1.2" stroke-linecap="round" stroke-linejoin="round"/>
<path d="M14.5856 6.7431C15.1016 7.4286 15.5553 8.21985 15.9371 9.1026C14.4618 12.5204 11.8548 14.5791 8.99959 14.5791C8.35234 14.5791 7.71409 14.4741 7.10059 14.2694" stroke="#7B6F72" stroke-width="1.2" stroke-linecap="round" stroke-linejoin="round"/>
<path d="M14.915 3.18719L3.08447 15.0177" stroke="#7B6F72" stroke-width="1.2" stroke-linecap="round" stroke-linejoin="round"/>
</svg>
