<svg width="24" height="24" viewBox="0 0 24 24" fill="none" xmlns="http://www.w3.org/2000/svg">
<path d="M11.25 11.25V3C11.25 2.781 11.3203 2.60125 11.4608 2.46075C11.6013 2.32025 11.781 2.25 12 2.25C12.219 2.25 12.3987 2.32025 12.5392 2.46075C12.6797 2.60125 12.75 2.781 12.75 3V11.25H21C21.219 11.25 21.3987 11.3203 21.5392 11.4608C21.6797 11.6013 21.75 11.781 21.75 12C21.75 12.219 21.6797 12.3987 21.5392 12.5392C21.3987 12.6797 21.219 12.75 21 12.75H12.75V21C12.75 21.219 12.6797 21.3987 12.5392 21.5392C12.3987 21.6797 12.219 21.75 12 21.75C11.781 21.75 11.6013 21.6797 11.4608 21.5392C11.3203 21.3987 11.25 21.219 11.25 21V12.75H3C2.781 12.75 2.60125 12.6797 2.46075 12.5392C2.32025 12.3987 2.25 12.219 2.25 12C2.25 11.781 2.32025 11.6013 2.46075 11.4608C2.60125 11.3203 2.781 11.25 3 11.25H11.25Z" fill="#A5A3B0"/>
</svg>
