<svg width="40" height="40" viewBox="0 0 40 40" fill="none" xmlns="http://www.w3.org/2000/svg">
<circle opacity="0.2" cx="20" cy="20" r="20" fill="#A5A3B0"/>
<path d="M11.2915 13.6667C11.2915 13.2294 11.6459 12.875 12.0832 12.875H13.6665C14.1037 12.875 14.4582 13.2294 14.4582 13.6667V26.3333C14.4582 26.7705 14.1037 27.125 13.6665 27.125H12.0832C11.6459 27.125 11.2915 26.7705 11.2915 26.3333V13.6667Z" stroke="black"/>
<path d="M25.5415 13.6667C25.5415 13.2294 25.896 12.875 26.3332 12.875H27.9165C28.3537 12.875 28.7082 13.2294 28.7082 13.6667V26.3333C28.7082 26.7705 28.3537 27.125 27.9165 27.125H26.3332C25.896 27.125 25.5415 26.7705 25.5415 26.3333V13.6667Z" stroke="black"/>
<path d="M14.4585 20H25.5418" stroke="black"/>
<path d="M7.3335 17.625C7.3335 17.1879 7.68794 16.8333 8.12516 16.8333H9.7085C10.1457 16.8333 10.5002 17.1879 10.5002 17.625V22.375C10.5002 22.8122 10.1457 23.1667 9.7085 23.1667H8.12516C7.68794 23.1667 7.3335 22.8122 7.3335 22.375V17.625Z" stroke="black"/>
<path d="M29.5 17.625C29.5 17.1879 29.8545 16.8333 30.2917 16.8333H31.875C32.3122 16.8333 32.6667 17.1879 32.6667 17.625V22.375C32.6667 22.8122 32.3122 23.1667 31.875 23.1667H30.2917C29.8545 23.1667 29.5 22.8122 29.5 22.375V17.625Z" stroke="black"/>
<path d="M8.9165 17.625V14.4583C8.9165 14.0211 9.27095 13.6667 9.70817 13.6667H11.2915" stroke="black"/>
<path d="M8.9165 22.375V25.5417C8.9165 25.9788 9.27095 26.3333 9.70817 26.3333H11.2915" stroke="black"/>
<path d="M31.0835 17.625V14.4583C31.0835 14.0211 30.729 13.6667 30.2918 13.6667H28.7085" stroke="black"/>
<path d="M31.0835 22.375V25.5417C31.0835 25.9788 30.729 26.3333 30.2918 26.3333H28.7085" stroke="black"/>
</svg>
